Simulation
nRows=27
nColumns=15
endheader
time  TH_x TH_y TH_z SC_y  SC_z  SC_x  AC_y  AC_z  AC_x  GH_y  GH_z  GH_yy  EL_x  PS_y
0.0  0.000000  0.000000  0.000000  -25.4385105423058  3.71243803864263  4.215254029590197  54.20603316672515  6.141800183112959  -1.794763663706197  5.325519272848945  10.185246690935585  35.422620723287764  27.167338671850807  120.000000
0.04065934065934069  0.000000  0.000000  0.000000  -23.996601748008793  4.212860220873575  4.310574579297514  53.90644928905269  6.164674479747849  -1.4094257066951086  0.27623747136170346  10.279624373992435  41.183306485502  26.30141360544956  120.000000
0.08131868131868138  0.000000  0.000000  0.000000  -22.756680042965773  4.522311598878414  4.303857263111306  53.69231235992339  6.056441773375589  -1.0518517783586427  -3.890106750326878  10.332865133677393  45.69340524751779  25.89410585044344  120.000000
0.12197802197802207  0.000000  0.000000  0.000000  -21.82759338931857  4.706790631268196  4.211490125220893  53.574638886276105  5.899503076124681  -0.7327468560070969  -7.058592915234524  10.357853642614597  48.47624529026952  26.245155553608473  120.000000
0.16263736263736275  0.000000  0.000000  0.000000  -21.241699963134216  4.8169443305614505  4.043521892066186  53.540834419093535  5.7610814638913554  -0.44094812784890536  -9.203474354178141  10.390715017530768  49.24564688556881  27.411551639834855  120.000000
0.20329670329670343  0.000000  0.000000  0.000000  -20.968477480220265  4.883060856434688  3.8090179943818976  53.570779661889055  5.702463708713638  -0.15300406371766734  -10.210722701358106  10.498809422000198  47.830435168713535  29.23635541363067  120.000000
0.24395604395604414  0.000000  0.000000  0.000000  -20.948418854468073  4.915933792170196  3.52427027771462  53.64951107909602  5.776405600082417  0.14009859829410665  -9.801700114347978  10.76953038303342  44.07464600668642  31.440477413696122  120.000000
0.2846153846153848  0.000000  0.000000  0.000000  -21.122037418870818  4.916357104676537  3.2177549902140674  53.762301263518424  6.020510824735331  0.4263604169025857  -7.653611844835964  11.30620680927041  37.90448526275387  33.71543403040714  120.000000
0.3252747252747255  0.000000  0.000000  0.000000  -21.43291393903723  4.87873178267442  2.920253524483436  53.89198010409955  6.4545968410920445  0.6835805932107453  -3.6778418525180823  12.23144252556812  29.546549943486163  35.7574973830568  120.000000
0.3659340659340662  0.000000  0.000000  0.000000  -21.821336052847737  4.790913612096133  2.6580163084087993  54.02879975749548  7.073931389269129  0.8848115362792045  1.7846777568740386  13.680110148018409  19.67461669104147  37.27691472489174  120.000000
0.40659340659340687  0.000000  0.000000  0.000000  -22.214391582138266  4.636291511098544  2.4490838046050767  54.166777898834646  7.840001238393083  1.0089632934828532  8.016685226724208  15.764889322264661  9.325356669052175  38.036186435576894  120.000000
0.44725274725274755  0.000000  0.000000  0.000000  -22.52647981518383  4.4051400868410076  2.2953536661996945  54.307177000595274  8.68434901075335  1.0529565803116239  14.206986426716409  18.520803394662558  -0.4090226603139848  37.88596962333569  120.000000
0.4879120879120883  0.000000  0.000000  0.000000  -22.67035737309159  4.107762630866547  2.1812647898283615  54.446515550742646  9.523814353682997  1.035788879325717  19.73842834525097  21.857588017726574  -8.681531558658406  36.75921454239751  120.000000
0.5285714285714289  0.000000  0.000000  0.000000  -22.57564125969446  3.777100944869707  2.0796844082101265  54.56447673466607  10.283030504890174  0.986590303296795  24.30026291205128  25.551617086126793  -15.021231399181103  34.671458220735616  120.000000
0.5692307692307697  0.000000  0.000000  0.000000  -22.216397106180846  3.4625816705348824  1.9624708896034577  54.628744907425954  10.908532022809581  0.941191409976692  27.827476403432616  29.27903240233378  -19.296508056339174  31.750359971320023  120.000000
0.6098901098901103  0.000000  0.000000  0.000000  -21.6283529070955  3.2148881061622534  1.8060538361377725  54.611492464451786  11.371530589369948  0.9314572567185216  30.40213776974131  32.68276712383661  -21.66047515330144  28.281251790812203  120.000000
0.650549450549451  0.000000  0.000000  0.000000  -20.90268133115119  3.0649987265965115  1.5925006585511494  54.501234297359794  11.66522651286429  0.9753359222474027  32.151507855055975  35.4468945597659  -22.49076258385886  24.738832349065834  120.000000
0.6912087912087918  0.000000  0.000000  0.000000  -20.17239924011971  3.0212696452660013  1.3094060386205746  54.307961492708316  11.801714778721339  1.0807178102980879  33.177970580678576  37.348664680892426  -22.31427975452423  21.751961344362787  120.000000
0.7318681318681324  0.000000  0.000000  0.000000  -19.59467802761148  3.085395354313737  0.9507838320875351  54.052315504194866  11.808751747023631  1.2480424245575552  33.54378874865643  38.28047533362098  -21.706844306940823  20.000812474943164  120.000000
0.7725274725274731  0.000000  0.000000  0.000000  -19.30700879743569  3.2537977657315347  0.5167430395071205  53.74585966390029  11.72970534751304  1.4664198847233432  33.28463417479507  38.24430530867343  -21.173039765685612  20.04808639976639  120.000000
0.8131868131868137  0.000000  0.000000  0.000000  -19.37368119421193  3.5058594004574726  0.010666238767216979  53.39075718542506  11.62374101056314  1.7154277325242409  32.42735851630689  37.3221466959039  -21.022799221052754  22.171106649619844  120.000000
0.8538461538461545  0.000000  0.000000  0.000000  -19.766419082796027  3.8038355996547817  -0.5642980460519476  52.991519714635324  11.554038948210103  1.9767137685038711  31.004766705866704  35.649301318805165  -21.289654113804243  26.314208175495224  120.000000
0.8945054945054951  0.000000  0.000000  0.000000  -20.382498591392665  4.102912599770154  -1.20384675732558  52.56320704937466  11.573167539143872  2.2422150368130365  29.060212355584543  33.41169367332357  -21.752066307917502  32.14877742447253  120.000000
0.9351648351648358  0.000000  0.000000  0.000000  -21.07896949230625  4.364396671048016  -1.8944181028695413  52.12736980021111  11.714982239747838  2.5133299642716094  26.624690023383057  30.849960616907175  -22.037867592998378  39.18755874469198  120.000000
0.9758241758241766  0.000000  0.000000  0.000000  -21.72023396079609  4.568989359422739  -2.6064032297206605  51.704577489242  11.99581594299555  2.794729159769429  23.711275690580234  28.246733599051776  -21.775471848449754  46.90968101402386  120.000000
1.0164835164835173  0.000000  0.000000  0.000000  -22.21905586259004  4.722091075265013  -3.2985292345630675  51.30816142788851  12.417745838497803  3.093990846201488  20.37647979907173  25.889402386050808  -20.771505733029475  54.855198429474804  120.000000
1.0571428571428578  0.000000  0.000000  0.000000  -22.550134969612632  4.848104885212545  -3.9259340817568438  50.945875457177586  12.972970578963182  3.4210750748628858  16.839041199753822  24.016325621718455  -19.17503813648227  62.667504769515084  120.000000
